PathFileType	4	(X/Y/Z)	C:/Users/beibeiliu/ov580/test_trc/capture2\sequence.38_training_dense_right.trc
DataRate	CameraRate	NumFrames	NumMarkers	Units	OrigDataRate	OrigDataStartFrame	OrigNumFrames
120	120	14	19	mm	120	201	400
Frame#	Time	ThumbCMC			ThumbMCP			ThumbIP			ThumbTip			IndexMCP			IndexPIP			IndexTip			MiddleMCP			MiddlePIP			MiddleTip			RingMCP			RingPIP			RingTip			PinkyMCP			PinkyPIP			PinkyTip			BackHand1			BackHand2			BackHand3	
		X0	Y0	Z0	X1	Y1	Z1	X2	Y2	Z2	X3	Y3	Z3	X4	Y4	Z4	X5	Y5	Z5	X6	Y6	Z6	X7	Y7	Z7	X8	Y8	Z8	X9	Y9	Z9	X10	Y10	Z10	X11	Y11	Z11	X12	Y12	Z12	X13	Y13	Z13	X14	Y14	Z14	X15	Y15	Z15	X16	Y16	Z16	X17	Y17	Z17	X18	Y18	Z18	
200	1.66667	115.04	-36.7852	56.0263	127.825	-52.7729	29.1561	133.208	-51.8162	-1.99742	141.505	-41.8772	-21.654	79.866	-8.16217	1.45199	70.5437	-8.46102	-25.88	68.5166	-8.39635	-51.0328	99.0502	16.1418	-10.9143	100.328	15.6559	-38.1286	112.323	7.1726	-67.707	122.302	20.4376	-11.5139	137.949	2.80973	-33.7666	154.648	-25.5554	-23.1073	141.454	35.1238	3.86812	142.832	38.9586	-21.4417	144.536	50.075	-40.8398	117.815	23.1898	44.0312	129.024	21.1682	76.1364	101.073	0.990407	59.4958	
201	1.675	114.336	-39.8052	58.4354	126.84	-54.3539	25.2761	132.476	-54.4089	1.26414	141.505	-41.9764	-21.3409	80.4703	-9.36139	1.80871	71.3206	-8.08603	-26.4401	67.6792	-9.52347	-50.847	100.565	15.0132	-10.3814	98.2438	11.0684	-39.9115	113.969	1.91835	-70.6071	123.885	19.821	-9.74154	139.089	4.77976	-33.6882	151.618	-26.481	-24.6367	140.847	32.4765	3.6157	144.784	38.7014	-17.49	145.904	48.7112	-40.6647	122.262	25.4439	42.8473	125.049	19.3555	72.8964	101.304	-3.99996	60.9944	
202	1.68333	115.494	-39.2326	55.1338	128.667	-54.1584	27.4961	133.392	-54.3182	-2.09851	141.73	-38.3518	-20.2007	78.4475	-10.7405	-0.918535	72.2913	-10.103	-26.5252	69.0695	-9.05604	-52.4088	99.1365	10.0474	-8.54832	102.562	10.9057	-41.4683	113.645	-1.68881	-66.5422	121.361	16.178	-12.1539	139.517	0.381738	-34.2316	154.044	-25.1667	-25.7702	141.668	33.1904	1.88309	142.893	36.5111	-19.1733	146.339	49.9001	-38.9308	120.727	24.2498	45.9146	128.929	19.8991	71.6872	102.337	-2.77482	59.5988	
203	1.69167	113.649	-42.2533	53.9611	127.906	-56.7401	26.794	134.037	-53.0854	-1.49739	142.082	-40.409	-22.638	79.9174	-10.6123	-2.06738	71.3921	-11.8369	-25.3843	67.5785	-12.3717	-54.7505	99.8358	12.155	-12.933	103.644	9.03164	-40.6921	119.752	-2.11219	-67.5717	124.176	18.3173	-11.6871	138.95	-0.364029	-35.3219	156.555	-26.3214	-26.1284	139.384	32.7195	-0.800162	143.016	36.1488	-21.573	145.171	48.1547	-38.0752	120.441	23.1121	44.3187	129.955	20.7788	75.8057	99.8777	-2.07169	58.2728	
204	1.7	116.622	-40.6682	57.2352	129.367	-53.1433	27.2044	133.515	-55.9305	-1.00321	141.955	-44.6027	-20.6678	81.5638	-7.23182	-2.92328	72.6551	-11.6314	-27.6978	72.23	-9.90747	-56.4483	101.941	12.8872	-11.8216	106.557	10.6974	-40.7482	117.968	-4.649	-67.3067	121.671	18.285	-13.7038	139.544	3.97947	-36.588	152.55	-24.9766	-33.1222	139.888	32.1312	2.42175	146.454	39.4221	-19.6895	145.097	48.2787	-38.6951	122.884	21.6143	44.6419	128.552	19.4573	72.7263	102.146	-2.77391	59.2612	
205	1.70833	117.342	-41.0363	55.4101	129.342	-58.4604	28.8186	134.914	-58.02	0.824412	142.472	-44.427	-20.4333	83.0353	-9.14294	-3.62802	74.9752	-12.6305	-29.7336	74.3736	-12.4704	-51.3996	102.989	11.3147	-8.43158	106.019	9.24136	-39.1893	121.511	-5.26896	-68.9288	122.342	21.7008	-12.4953	132.569	8.88313	-36.0174	148.849	-18.1026	-40.8653	139.181	30.0795	5.02682	143.753	38.7729	-18.0468	144.457	48.8421	-41.061	122.702	24.7364	44.3822	126.406	16.7817	75.2179	102.361	-1.54621	58.8746	
206	1.71667	116.68	-41.1148	55.3435	130.768	-56.7928	26.8317	135.933	-59.6037	-1.66627	142.741	-49.2555	-21.84	84.2727	-9.57955	-3.01056	77.8677	-14.5067	-27.7765	78.8294	-15.6031	-55.236	101.569	10.3023	-7.27317	105.252	9.2299	-38.791	118.099	-6.23644	-66.8709	121.232	20.8783	-7.54468	132.349	10.5383	-38.7014	150.173	-13.6473	-50.0496	139.591	31.2315	4.72469	141.907	38.3459	-20.371	145.48	48.0574	-39.759	120.171	20.5698	44.6956	128.796	18.7964	71.8253	104.678	-2.40064	58.0337	
207	1.725	119.153	-42.2119	58.3512	132.089	-55.3196	28.348	135.668	-63.0612	0.233781	142.953	-54.7881	-20.4614	84.0166	-13.7464	-2.76291	80.197	-15.3402	-29.4767	83.2959	-20.1715	-53.7419	100.37	8.17915	-12.5445	103.978	7.12331	-38.4165	116.407	-8.20248	-67.8367	120.667	19.3445	-6.70797	129.634	11.9743	-39.8342	143.136	-4.82944	-55.1165	139.732	29.8413	4.97058	146.047	41.1032	-19.759	145.557	48.4295	-40.102	120.372	20.8845	45.2679	129.594	19.7378	76.0875	104.023	-3.40497	61.5217	
208	1.73333	118.747	-43.5829	57.0299	132.009	-59.8518	30.8289	136.143	-62.1644	1.09474	142.341	-55.0176	-23.4612	85.0624	-15.9366	-1.23846	80.5267	-19.6318	-26.7446	86.7231	-25.3162	-59.0837	99.3219	5.98039	-11.8171	103.964	7.10768	-39.3592	116.032	-4.9754	-66.8283	117.837	17.5931	-7.46697	123.69	14.6525	-34.5137	138.628	0.234845	-58.6763	139.327	31.527	0.0625345	146.605	39.6534	-16.5466	146.273	47.8866	-39.2438	121.167	17.9051	44.4269	126.803	17.8277	72.1336	104.252	-3.58629	56.6047	
209	1.74167	117.887	-45.1288	57.362	131.733	-58.7206	28.2842	136.671	-62.2521	3.01011	143.713	-55.8511	-22.9613	86.9368	-15.8914	-1.17904	83.7369	-19.1852	-30.9636	88.9675	-23.5033	-55.928	102.056	7.58593	-9.86229	104.146	7.23069	-40.9259	113.324	-7.11243	-68.1364	117.64	18.7025	-8.81682	125.589	16.4425	-41.4337	137.59	2.04898	-64.5851	139.45	30.3302	-0.305748	144.652	37.5903	-23.7057	147.881	45.9747	-43.2745	123.845	21.7459	41.2723	130.658	18.4899	71.0916	106.575	-2.33313	56.3214	
210	1.75	118.906	-39.3583	57.3069	131.067	-55.3053	27.0418	137.052	-60.4448	0.852724	143.753	-58.3157	-18.132	86.1226	-15.0612	-5.56789	84.6773	-17.7398	-30.7464	89.6897	-27.8842	-60.2039	101.589	9.48021	-15.0613	100.572	4.21676	-42.1908	112.192	-4.55713	-68.0886	119.269	19.9219	-7.60261	121.836	16.0424	-39.4455	130.31	4.30056	-63.5297	141.876	28.835	2.28406	145.492	33.0866	-24.1905	150.044	35.7818	-48.6861	122.911	18.7437	42.3555	128.997	18.5801	73.2503	104.629	-2.39625	58.0083	
211	1.75833	116.5	-43.2128	56.1739	129.747	-61.2033	30.7149	135.105	-65.3142	1.28118	143.19	-59.3146	-21.9525	86.1822	-14.6258	-7.13651	84.1466	-19.1758	-32.5272	92.1722	-28.6648	-60.2666	100.306	7.73774	-10.5907	101.968	6.12292	-39.5795	110.803	-3.97663	-68.2595	117.565	18.4198	-10.9449	123.017	19.5946	-39.737	131.604	7.62533	-64.4956	141.491	27.8502	-1.67783	144.17	27.9447	-22.9281	152.086	24.1919	-53.1536	122.314	19.8872	40.4503	133.064	18.7057	71.7475	104.778	-0.026439	56.059	
212	1.76667	115.972	-43.1397	55.8141	130.705	-56.3862	31.3027	134.622	-64.6495	1.87199	142.771	-55.7955	-22.2524	86.1527	-14.1331	-4.77382	85.5212	-18.9085	-29.4889	93.6804	-28.4055	-58.2602	100.485	9.75142	-12.525	100.027	5.5996	-37.4665	109.916	-2.21622	-66.9175	120.135	22.0521	-11.0006	120.466	17.3093	-38.8563	128.568	6.55744	-63.875	141.278	25.7457	-3.28348	144.535	21.9387	-28.4938	153.256	9.48514	-52.0483	123.585	20.6539	43.5082	130.594	16.3931	70.2812	104.612	-2.245	58.3296	
213	1.775	117.251	-41.2845	58.1611	128.756	-57.4408	26.8623	135.025	-60.3176	-0.191984	142.669	-48.9177	-23.7527	87.6856	-13.9636	-1.27554	85.9522	-18.5788	-29.8413	95.4907	-28.6062	-58.4467	100.989	9.06528	-7.97403	100.231	7.77528	-38.785	112.028	-1.50044	-70.256	116.505	18.4436	-9.3366	120.514	17.7089	-35.8712	125.934	3.27002	-64.3996	139.917	22.8839	-1.0187	145.912	16.7428	-28.3297	151.125	-2.03827	-46.1977	125.187	21.3323	46.5985	132.921	18.1935	74.5136	104.918	-2.82493	62.8997	
